# Created by Kenney (www.kenney.nl)

mtllib bloc.mtl

v 5 5 4
v 4 5 4
v 4.965926 5.258819 4
v 4 6 4
v 4.866025 5.5 4
v 4.707107 5.707107 4
v 4.5 5.866025 4
v 4.258819 5.965926 4
v 4.707107 5.707107 -4
v 4.5 5.866025 -4
v 4.866025 5.5 -4
v 4.965926 5.258819 -4
v 5 5 -4
v 4.258819 5.965926 -4
v 4 6 -4
v 4 5 -4
v 4.258819 -3.965926 4
v 4.258819 -3.965926 -4
v 4 -4 4
v 4 -4 -4
v 4.5 -3.866025 -4
v 4.5 -3.866025 4
v 4.707107 -3.707107 -4
v 4.707107 -3.707107 4
v 4.866025 -3.5 4
v 4.866025 -3.5 -4
v 4.965926 -3.258819 4
v 4.965926 -3.258819 -4
v 5 -3 4
v 5 -3 -4
v 4 -3 -4
v 4 -3 4
v -4.258819 5.965926 -4
v -4.258819 5.965926 4
v -4.5 5.866025 -4
v -4.5 5.866025 4
v -4 6 4
v -4 6 -4
v -4.707107 5.707107 -4
v -4.707107 5.707107 4
v -4.866025 5.5 4
v -4.866025 5.5 -4
v -4.965926 5.258819 4
v -4.965926 5.258819 -4
v -5 5 4
v -5 5 -4
v -4 5 -4
v -4 5 4
v -4.5 -3.866025 4
v -4.5 -3.866025 -4
v -4.707107 -3.707107 4
v -4.707107 -3.707107 -4
v -4.258819 -3.965926 -4
v -4.258819 -3.965926 4
v -4 -4 -4
v -4 -4 4
v -4.866025 -3.5 -4
v -4.866025 -3.5 4
v -4.965926 -3.258819 -4
v -4.965926 -3.258819 4
v -5 -3 -4
v -5 -3 4
v -4 -3 -4
v -4 -3 4
v 4 1 4
v 4 1 -4
v 2 1 4
v 2 1 -4
v 2 5 -4
v 2 5 4
v 2 4 4
v 2 4 -4
v -4 4 4
v -4 4 -4
v 2 2 3.5
v 2 2 -3.5
v 1 2 3.5
v 1 2 -3.5
v 1 4 -3.5
v 1 4 3.5
v 2 4 -3.5
v 2 4 3.5
v 1 -1 4
v 1 -1 -4
v -1 -1 4
v -1 -1 -4
v -1 4 -4
v -1 4 4
v 1 4 -4
v 1 4 4
v -1 2 3.5
v -1 2 -3.5
v -2 2 3.5
v -2 2 -3.5
v -2 4 -3.5
v -2 4 3.5
v -1 4 -3.5
v -1 4 3.5
v -2 1 4
v -2 1 -4
v -4 1 4
v -4 1 -4
v -2 4 -4
v -2 4 4
v 2 -1 4
v 2 -1 -4
v 1 2 -4
v 1 2 4
v 2 2 -4
v 2 2 4
v -2 -1 4
v -2 -1 -4
v -2 2 -4
v -2 2 4
v -1 2 -4
v -1 2 4
v 4 0 3.5
v 4 0 -3.5
v 2 0 3.5
v 2 0 -3.5
v 2 1 -3.5
v 2 1 3.5
v 4 1 -3.5
v 4 1 3.5
v -2 -2 3.5
v -2 -2 -3.5
v -3 -2 3.5
v -3 -2 -3.5
v -3 1 -3.5
v -3 1 3.5
v -2 1 -3.5
v -2 1 3.5
v -3 0 3.5
v -3 0 -3.5
v -4 0 3.5
v -4 0 -3.5
v -4 1 -3.5
v -4 1 3.5
v 3 -3 4
v 3 -3 -4
v 3 0 -4
v 3 0 4
v 4 0 -4
v 4 0 4
v 3 -2 3.5
v 3 -2 -3.5
v 2 -2 3.5
v 2 -2 -3.5
v 3 0 -3.5
v 3 0 3.5
v -3 -3 4
v -3 -3 -4
v -4 0 -4
v -4 0 4
v -3 0 -4
v -3 0 4
v 1 -2 3.5
v 1 -2 -3.5
v 1 -1 -3.5
v 1 -1 3.5
v 2 -1 -3.5
v 2 -1 3.5
v 1 -3 4
v 1 -3 -4
v -1 -3 4
v -1 -3 -4
v -1 -2 3.5
v -1 -2 -3.5
v -2 -1 -3.5
v -2 -1 3.5
v -1 -1 -3.5
v -1 -1 3.5
v 1 -2 -4
v 1 -2 4
v 3 -2 -4
v 3 -2 4
v -3 -2 -4
v -3 -2 4
v -1 -2 -4
v -1 -2 4

vn 0 0 1
vn 0.7071068 0.7071068 0
vn 0.5 0.8660254 0
vn 0.8660254 0.5 0
vn 0.9659259 0.2588191 0
vn 0.9914449 0.1305262 0
vn 0.2588191 0.9659258 0
vn 0.1305262 0.9914449 0
vn 0 0 -1
vn 0 -1 0
vn -1 0 0
vn 0.2588191 -0.9659259 0
vn 0.1305262 -0.9914449 0
vn 0.5 -0.8660254 0
vn 0.7071068 -0.7071068 0
vn 0.8660254 -0.5 0
vn 0.9659259 -0.2588191 0
vn 0.9914449 -0.1305262 0
vn 0 1 0
vn -0.2588191 0.9659259 0
vn -0.5 0.8660254 0
vn -0.1305262 0.9914449 0
vn -0.7071068 0.7071068 0
vn -0.8660254 0.5 0
vn -0.9659259 0.2588191 0
vn -0.9914449 0.1305262 0
vn 1 0 0
vn -0.5 -0.8660254 0
vn -0.7071068 -0.7071068 0
vn -0.2588191 -0.9659259 0
vn -0.1305262 -0.9914449 0
vn -0.8660254 -0.5 0
vn -0.9659259 -0.2588191 0
vn -0.9914449 -0.1305262 0

vt 0.703125 0.703125
vt 0.6875 0.703125
vt 0.7025926 0.7071691
vt 0.6875 0.71875
vt 0.7010316 0.7109375
vt 0.6985486 0.7141736
vt 0.6953125 0.7166566
vt 0.6915441 0.7182176
vt 0.3014514 0.8203125
vt 0.3014514 0.9453125
vt 0.3046875 0.8203125
vt 0.3046875 0.9453125
vt 0.9453125 0.7141736
vt 0.9453125 0.7109375
vt 0.8203125 0.7141736
vt 0.8203125 0.7109375
vt 0.9453125 0.7071691
vt 0.8203125 0.7071691
vt 0.9453125 0.703125
vt 0.8203125 0.703125
vt 0.3084559 0.8203125
vt 0.3084559 0.9453125
vt 0.3125 0.8203125
vt 0.3125 0.9453125
vt 0.046875 0.703125
vt 0.04740741 0.7071691
vt 0.0625 0.703125
vt 0.0625 0.71875
vt 0.04896835 0.7109375
vt 0.05145146 0.7141736
vt 0.0546875 0.7166566
vt 0.05845595 0.7182176
vt 0.296875 0.3203125
vt 0.296875 0.4453125
vt 0.3125 0.3203125
vt 0.3125 0.4453125
vt 0.3203125 0.703125
vt 0.3203125 0.71875
vt 0.4453125 0.703125
vt 0.4453125 0.71875
vt 0.3084559 0.3203125
vt 0.3084559 0.4453125
vt 0.3046875 0.4453125
vt 0.3046875 0.3203125
vt 0.3014514 0.4453125
vt 0.3014514 0.3203125
vt 0.8203125 0.5670764
vt 0.8203125 0.5703125
vt 0.9453125 0.5670764
vt 0.9453125 0.5703125
vt 0.8203125 0.5740809
vt 0.9453125 0.5740809
vt 0.8203125 0.578125
vt 0.9453125 0.578125
vt 0.3203125 0.5625
vt 0.3203125 0.578125
vt 0.4453125 0.5625
vt 0.4453125 0.578125
vt 0.296875 0.8203125
vt 0.296875 0.9453125
vt 0.0625 0.5625
vt 0.05845595 0.5630324
vt 0.0625 0.578125
vt 0.0546875 0.5645934
vt 0.05145146 0.5670764
vt 0.04896835 0.5703125
vt 0.04740741 0.5740809
vt 0.046875 0.578125
vt 0.6875 0.5625
vt 0.6875 0.578125
vt 0.6915441 0.5630324
vt 0.6953125 0.5645934
vt 0.6985486 0.5670764
vt 0.7010316 0.5703125
vt 0.7025926 0.5740809
vt 0.703125 0.578125
vt 0.4415441 0.8203125
vt 0.4415441 0.9453125
vt 0.4453125 0.8203125
vt 0.4453125 0.9453125
vt 0.4375 0.9453125
vt 0.4375 0.8203125
vt 0.4485486 0.8203125
vt 0.4485486 0.9453125
vt 0.4453125 0.7141736
vt 0.4453125 0.7109375
vt 0.3203125 0.7141736
vt 0.3203125 0.7109375
vt 0.4453125 0.7071691
vt 0.3203125 0.7071691
vt 0.9453125 0.71875
vt 0.8203125 0.71875
vt 0.203125 0.703125
vt 0.1875 0.703125
vt 0.2025926 0.7071691
vt 0.1875 0.71875
vt 0.2010317 0.7109375
vt 0.1985485 0.7141736
vt 0.1953125 0.7166566
vt 0.1915441 0.7182176
vt 0.5625 0.703125
vt 0.546875 0.703125
vt 0.5625 0.71875
vt 0.5474074 0.7071691
vt 0.5489684 0.7109375
vt 0.5514514 0.7141736
vt 0.5546875 0.7166566
vt 0.5584559 0.7182176
vt 0.4375 0.3203125
vt 0.4375 0.4453125
vt 0.453125 0.3203125
vt 0.453125 0.4453125
vt 0.4453125 0.3203125
vt 0.4453125 0.4453125
vt 0.4485486 0.3203125
vt 0.4485486 0.4453125
vt 0.4415441 0.4453125
vt 0.4415441 0.3203125
vt 0.3203125 0.5670764
vt 0.3203125 0.5703125
vt 0.4453125 0.5670764
vt 0.4453125 0.5703125
vt 0.3203125 0.5740809
vt 0.4453125 0.5740809
vt 0.453125 0.8203125
vt 0.453125 0.9453125
vt 0.9453125 0.5625
vt 0.8203125 0.5625
vt 0.1875 0.5625
vt 0.1875 0.578125
vt 0.1915441 0.5630324
vt 0.1953125 0.5645934
vt 0.1985485 0.5670764
vt 0.2010317 0.5703125
vt 0.2025926 0.5740809
vt 0.203125 0.578125
vt 0.5625 0.5625
vt 0.5584559 0.5630324
vt 0.5625 0.578125
vt 0.5546875 0.5645934
vt 0.5514514 0.5670764
vt 0.5489684 0.5703125
vt 0.5474074 0.5740809
vt 0.546875 0.578125
vt 0.34375 0.3203125
vt 0.34375 0.4453125
vt 0.3203125 0.640625
vt 0.4453125 0.640625
vt 0.09375 0.640625
vt 0.0625 0.640625
vt 0.09375 0.703125
vt 0.6875 0.640625
vt 0.65625 0.640625
vt 0.65625 0.703125
vt 0.9453125 0.640625
vt 0.8203125 0.640625
vt 0.34375 0.8203125
vt 0.34375 0.9453125
vt 0.3203125 0.6875
vt 0.4453125 0.6875
vt 0.1875 0.6875
vt 0.09375 0.6875
vt 0.65625 0.6875
vt 0.5625 0.6875
vt 0.9453125 0.6875
vt 0.8203125 0.6875
vt 0.34375 0.328125
vt 0.34375 0.4375
vt 0.359375 0.328125
vt 0.359375 0.4375
vt 0.328125 0.65625
vt 0.328125 0.6875
vt 0.4375 0.65625
vt 0.4375 0.6875
vt 0.109375 0.65625
vt 0.09375 0.65625
vt 0.109375 0.6875
vt 0.65625 0.65625
vt 0.640625 0.65625
vt 0.640625 0.6875
vt 0.9375 0.6875
vt 0.9375 0.65625
vt 0.828125 0.6875
vt 0.828125 0.65625
vt 0.34375 0.828125
vt 0.34375 0.9375
vt 0.359375 0.828125
vt 0.359375 0.9375
vt 0.359375 0.3203125
vt 0.359375 0.4453125
vt 0.390625 0.3203125
vt 0.390625 0.4453125
vt 0.3203125 0.609375
vt 0.4453125 0.609375
vt 0.140625 0.609375
vt 0.109375 0.609375
vt 0.140625 0.6875
vt 0.640625 0.609375
vt 0.609375 0.609375
vt 0.609375 0.6875
vt 0.9453125 0.609375
vt 0.8203125 0.609375
vt 0.359375 0.8203125
vt 0.359375 0.9453125
vt 0.390625 0.8203125
vt 0.390625 0.9453125
vt 0.390625 0.328125
vt 0.390625 0.4375
vt 0.40625 0.328125
vt 0.40625 0.4375
vt 0.15625 0.65625
vt 0.140625 0.65625
vt 0.15625 0.6875
vt 0.609375 0.65625
vt 0.59375 0.65625
vt 0.59375 0.6875
vt 0.390625 0.828125
vt 0.390625 0.9375
vt 0.40625 0.828125
vt 0.40625 0.9375
vt 0.40625 0.3203125
vt 0.40625 0.4453125
vt 0.1875 0.640625
vt 0.15625 0.640625
vt 0.59375 0.640625
vt 0.5625 0.640625
vt 0.40625 0.8203125
vt 0.40625 0.9453125
vt 0.3203125 0.65625
vt 0.4453125 0.65625
vt 0.09375 0.609375
vt 0.65625 0.609375
vt 0.9453125 0.65625
vt 0.8203125 0.65625
vt 0.15625 0.609375
vt 0.59375 0.609375
vt 0.3125 0.328125
vt 0.3125 0.4375
vt 0.328125 0.625
vt 0.328125 0.640625
vt 0.4375 0.625
vt 0.4375 0.640625
vt 0.09375 0.625
vt 0.0625 0.625
vt 0.6875 0.625
vt 0.65625 0.625
vt 0.9375 0.640625
vt 0.9375 0.625
vt 0.828125 0.640625
vt 0.828125 0.625
vt 0.3125 0.828125
vt 0.3125 0.9375
vt 0.421875 0.328125
vt 0.421875 0.4375
vt 0.328125 0.59375
vt 0.4375 0.59375
vt 0.171875 0.59375
vt 0.15625 0.59375
vt 0.171875 0.640625
vt 0.59375 0.59375
vt 0.578125 0.59375
vt 0.578125 0.640625
vt 0.9375 0.59375
vt 0.828125 0.59375
vt 0.421875 0.828125
vt 0.421875 0.9375
vt 0.4375 0.328125
vt 0.4375 0.4375
vt 0.1875 0.625
vt 0.171875 0.625
vt 0.578125 0.625
vt 0.5625 0.625
vt 0.4375 0.828125
vt 0.4375 0.9375
vt 0.328125 0.3203125
vt 0.328125 0.4453125
vt 0.3203125 0.625
vt 0.4453125 0.625
vt 0.078125 0.578125
vt 0.078125 0.625
vt 0.671875 0.578125
vt 0.671875 0.625
vt 0.9453125 0.625
vt 0.8203125 0.625
vt 0.328125 0.8203125
vt 0.328125 0.9453125
vt 0.328125 0.328125
vt 0.328125 0.4375
vt 0.09375 0.59375
vt 0.078125 0.59375
vt 0.671875 0.59375
vt 0.65625 0.59375
vt 0.328125 0.828125
vt 0.328125 0.9375
vt 0.421875 0.3203125
vt 0.421875 0.4453125
vt 0.171875 0.578125
vt 0.578125 0.578125
vt 0.421875 0.8203125
vt 0.421875 0.9453125
vt 0.328125 0.609375
vt 0.4375 0.609375
vt 0.109375 0.59375
vt 0.640625 0.59375
vt 0.9375 0.609375
vt 0.828125 0.609375
vt 0.140625 0.578125
vt 0.109375 0.578125
vt 0.640625 0.578125
vt 0.609375 0.578125
vt 0.140625 0.59375
vt 0.609375 0.59375
vt 0.3203125 0.59375
vt 0.4453125 0.59375
vt 0.9453125 0.59375
vt 0.8203125 0.59375

usemtl bloc

f 3/3/1 2/2/1 1/1/1
f 2/2/1 3/3/1 4/4/1
f 4/4/1 3/3/1 5/5/1
f 4/4/1 5/5/1 6/6/1
f 4/4/1 6/6/1 7/7/1
f 4/4/1 7/7/1 8/8/1
f 10/11/3 6/10/2 9/9/2
f 6/10/2 10/11/3 7/12/3
f 6/15/2 11/14/4 9/13/2
f 11/14/4 6/15/2 5/16/4
f 5/16/4 12/17/5 11/14/4
f 12/17/5 5/16/4 3/18/5
f 3/18/5 13/19/6 12/17/5
f 13/19/6 3/18/5 1/20/6
f 14/21/7 7/12/3 10/11/3
f 7/12/3 14/21/7 8/22/7
f 15/23/8 8/22/7 14/21/7
f 8/22/7 15/23/8 4/24/8
f 16/27/9 12/26/9 13/25/9
f 12/26/9 16/27/9 15/28/9
f 12/26/9 15/28/9 11/29/9
f 11/29/9 15/28/9 9/30/9
f 9/30/9 15/28/9 10/31/9
f 10/31/9 15/28/9 14/32/9
f 2/35/10 13/34/10 1/33/10
f 13/34/10 2/35/10 16/36/10
f 2/39/11 15/38/11 16/37/11
f 15/38/11 2/39/11 4/40/11
f 19/35/13 18/42/12 17/41/12
f 18/42/12 19/35/13 20/36/13
f 21/43/14 17/41/12 18/42/12
f 17/41/12 21/43/14 22/44/14
f 23/45/15 22/44/14 21/43/14
f 22/44/14 23/45/15 24/46/15
f 23/49/15 25/48/16 24/47/15
f 25/48/16 23/49/15 26/50/16
f 26/50/16 27/51/17 25/48/16
f 27/51/17 26/50/16 28/52/17
f 28/52/17 29/53/18 27/51/17
f 29/53/18 28/52/17 30/54/18
f 19/57/11 31/56/11 20/55/11
f 31/56/11 19/57/11 32/58/11
f 31/23/19 29/60/19 30/59/19
f 29/60/19 31/23/19 32/24/19
f 31/63/9 18/62/9 20/61/9
f 18/62/9 31/63/9 21/64/9
f 21/64/9 31/63/9 23/65/9
f 23/65/9 31/63/9 26/66/9
f 26/66/9 31/63/9 28/67/9
f 28/67/9 31/63/9 30/68/9
f 17/71/1 32/70/1 19/69/1
f 32/70/1 17/71/1 22/72/1
f 32/70/1 22/72/1 24/73/1
f 32/70/1 24/73/1 25/74/1
f 32/70/1 25/74/1 27/75/1
f 32/70/1 27/75/1 29/76/1
f 35/79/21 34/78/20 33/77/20
f 34/78/20 35/79/21 36/80/21
f 37/81/22 33/77/20 34/78/20
f 33/77/20 37/81/22 38/82/22
f 39/83/23 36/80/21 35/79/21
f 36/80/21 39/83/23 40/84/23
f 39/87/23 41/86/24 40/85/23
f 41/86/24 39/87/23 42/88/24
f 42/88/24 43/89/25 41/86/24
f 43/89/25 42/88/24 44/90/25
f 44/90/25 45/39/26 43/89/25
f 45/39/26 44/90/25 46/37/26
f 37/92/27 47/19/27 38/91/27
f 47/19/27 37/92/27 48/20/27
f 44/95/9 47/94/9 46/93/9
f 47/94/9 44/95/9 38/96/9
f 38/96/9 44/95/9 42/97/9
f 38/96/9 42/97/9 39/98/9
f 38/96/9 39/98/9 35/99/9
f 38/96/9 35/99/9 33/100/9
f 37/103/1 45/102/1 48/101/1
f 45/102/1 37/103/1 43/104/1
f 43/104/1 37/103/1 41/105/1
f 41/105/1 37/103/1 40/106/1
f 40/106/1 37/103/1 36/107/1
f 36/107/1 37/103/1 34/108/1
f 45/111/10 47/110/10 48/109/10
f 47/110/10 45/111/10 46/112/10
f 51/115/29 50/114/28 49/113/28
f 50/114/28 51/115/29 52/116/29
f 53/117/30 49/113/28 50/114/28
f 49/113/28 53/117/30 54/118/30
f 55/110/31 54/118/30 53/117/30
f 54/118/30 55/110/31 56/109/31
f 51/121/29 57/120/32 52/119/29
f 57/120/32 51/121/29 58/122/32
f 58/122/32 59/123/33 57/120/32
f 59/123/33 58/122/32 60/124/33
f 60/124/33 61/56/34 59/123/33
f 61/56/34 60/124/33 62/58/34
f 61/125/19 64/81/19 63/82/19
f 64/81/19 61/125/19 62/126/19
f 64/53/27 55/127/27 63/54/27
f 55/127/27 64/53/27 56/128/27
f 53/131/9 63/130/9 55/129/9
f 63/130/9 53/131/9 50/132/9
f 63/130/9 50/132/9 52/133/9
f 63/130/9 52/133/9 57/134/9
f 63/130/9 57/134/9 59/135/9
f 63/130/9 59/135/9 61/136/9
f 64/139/1 54/138/1 56/137/1
f 54/138/1 64/139/1 49/140/1
f 49/140/1 64/139/1 51/141/1
f 51/141/1 64/139/1 58/142/1
f 58/142/1 64/139/1 60/143/1
f 60/143/1 64/139/1 62/144/1
f 48/109/10 16/36/10 2/35/10
f 16/36/10 48/109/10 47/110/10
f 48/39/11 38/38/11 47/37/11
f 38/38/11 48/39/11 37/40/11
f 38/96/9 16/27/9 47/94/9
f 16/27/9 38/96/9 15/28/9
f 4/4/1 48/101/1 2/2/1
f 48/101/1 4/4/1 37/103/1
f 4/92/27 16/19/27 15/91/27
f 16/19/27 4/92/27 2/20/27
f 38/82/19 4/24/19 15/23/19
f 4/24/19 38/82/19 37/81/19
f 32/35/10 30/34/10 29/33/10
f 30/34/10 32/35/10 31/36/10
f 32/58/11 16/37/11 31/56/11
f 16/37/11 32/58/11 2/39/11
f 16/27/9 30/68/9 31/63/9
f 30/68/9 16/27/9 13/25/9
f 1/1/1 32/70/1 29/76/1
f 32/70/1 1/1/1 2/2/1
f 1/20/27 30/54/27 13/19/27
f 30/54/27 1/20/27 29/53/27
f 16/23/19 1/60/19 13/59/19
f 1/60/19 16/23/19 2/24/19
f 67/145/10 66/36/10 65/35/10
f 66/36/10 67/145/10 68/146/10
f 67/148/11 69/37/11 68/147/11
f 69/37/11 67/148/11 70/39/11
f 69/151/9 66/150/9 68/149/9
f 66/150/9 69/151/9 16/27/9
f 2/2/1 67/153/1 65/152/1
f 67/153/1 2/2/1 70/154/1
f 2/20/27 66/155/27 16/19/27
f 66/155/27 2/20/27 65/156/27
f 69/157/19 2/24/19 16/23/19
f 2/24/19 69/157/19 70/158/19
f 73/109/10 72/146/10 71/145/10
f 72/146/10 73/109/10 74/110/10
f 73/160/11 47/37/11 74/159/11
f 47/37/11 73/160/11 48/39/11
f 47/94/9 72/162/9 74/161/9
f 72/162/9 47/94/9 69/151/9
f 70/154/1 73/164/1 71/163/1
f 73/164/1 70/154/1 48/101/1
f 70/20/27 72/165/27 69/19/27
f 72/165/27 70/20/27 71/166/27
f 47/82/19 70/158/19 69/157/19
f 70/158/19 47/82/19 48/81/19
f 62/111/10 63/110/10 64/109/10
f 63/110/10 62/111/10 61/112/10
f 62/58/11 46/37/11 61/56/11
f 46/37/11 62/58/11 45/39/11
f 46/93/9 63/130/9 61/136/9
f 63/130/9 46/93/9 47/94/9
f 48/101/1 62/144/1 64/139/1
f 62/144/1 48/101/1 45/102/1
f 48/20/27 63/54/27 47/19/27
f 63/54/27 48/20/27 64/53/27
f 46/125/19 48/81/19 47/82/19
f 48/81/19 46/125/19 45/126/19
f 77/169/10 76/168/10 75/167/10
f 76/168/10 77/169/10 78/170/10
f 77/173/11 79/172/11 78/171/11
f 79/172/11 77/173/11 80/174/11
f 79/177/9 76/176/9 78/175/9
f 76/176/9 79/177/9 81/162/9
f 82/163/1 77/179/1 75/178/1
f 77/179/1 82/163/1 80/180/1
f 82/183/27 76/182/27 81/181/27
f 76/182/27 82/183/27 75/184/27
f 79/187/19 82/186/19 81/185/19
f 82/186/19 79/187/19 80/188/19
f 85/191/10 84/190/10 83/189/10
f 84/190/10 85/191/10 86/192/10
f 85/194/11 87/159/11 86/193/11
f 87/159/11 85/194/11 88/160/11
f 87/197/9 84/196/9 86/195/9
f 84/196/9 87/197/9 89/177/9
f 90/180/1 85/199/1 83/198/1
f 85/199/1 90/180/1 88/200/1
f 90/166/27 84/201/27 89/165/27
f 84/201/27 90/166/27 83/202/27
f 87/205/19 90/204/19 89/203/19
f 90/204/19 87/205/19 88/206/19
f 93/209/10 92/208/10 91/207/10
f 92/208/10 93/209/10 94/210/10
f 93/173/11 95/172/11 94/171/11
f 95/172/11 93/173/11 96/174/11
f 95/213/9 92/212/9 94/211/9
f 92/212/9 95/213/9 97/197/9
f 98/200/1 93/215/1 91/214/1
f 93/215/1 98/200/1 96/216/1
f 98/183/27 92/182/27 97/181/27
f 92/182/27 98/183/27 91/184/27
f 95/219/19 98/218/19 97/217/19
f 98/218/19 95/219/19 96/220/19
f 101/109/10 100/222/10 99/221/10
f 100/222/10 101/109/10 102/110/10
f 101/148/11 74/159/11 102/147/11
f 74/159/11 101/148/11 73/160/11
f 74/161/9 100/224/9 102/223/9
f 100/224/9 74/161/9 103/213/9
f 104/216/1 101/226/1 99/225/1
f 101/226/1 104/216/1 73/164/1
f 104/166/27 100/155/27 103/165/27
f 100/155/27 104/166/27 99/156/27
f 74/82/19 104/228/19 103/227/19
f 104/228/19 74/82/19 73/81/19
f 83/189/10 106/146/10 105/145/10
f 106/146/10 83/189/10 84/190/10
f 83/194/11 107/229/11 84/193/11
f 107/229/11 83/194/11 108/230/11
f 107/175/9 106/231/9 84/196/9
f 106/231/9 107/175/9 109/176/9
f 110/178/1 83/198/1 105/232/1
f 83/198/1 110/178/1 108/179/1
f 110/234/27 106/201/27 109/233/27
f 106/201/27 110/234/27 105/202/27
f 107/203/19 110/158/19 109/157/19
f 110/158/19 107/203/19 108/204/19
f 111/221/10 86/192/10 85/191/10
f 86/192/10 111/221/10 112/222/10
f 111/194/11 113/229/11 112/193/11
f 113/229/11 111/194/11 114/230/11
f 113/211/9 86/195/9 112/235/9
f 86/195/9 113/211/9 115/212/9
f 116/214/1 111/236/1 85/199/1
f 111/236/1 116/214/1 114/215/1
f 116/234/27 86/201/27 115/233/27
f 86/201/27 116/234/27 85/202/27
f 113/227/19 116/206/19 115/205/19
f 116/206/19 113/227/19 114/228/19
f 119/167/10 118/238/10 117/237/10
f 118/238/10 119/167/10 120/168/10
f 119/241/11 121/240/11 120/239/11
f 121/240/11 119/241/11 122/242/11
f 121/149/9 118/244/9 120/243/9
f 118/244/9 121/149/9 123/150/9
f 124/152/1 119/246/1 117/245/1
f 119/246/1 124/152/1 122/153/1
f 124/249/27 118/248/27 123/247/27
f 118/248/27 124/249/27 117/250/27
f 121/185/19 124/252/19 123/251/19
f 124/252/19 121/185/19 122/186/19
f 127/253/10 126/210/10 125/209/10
f 126/210/10 127/253/10 128/254/10
f 127/256/11 129/240/11 128/255/11
f 129/240/11 127/256/11 130/242/11
f 129/259/9 126/258/9 128/257/9
f 126/258/9 129/259/9 131/224/9
f 132/225/1 127/261/1 125/260/1
f 127/261/1 132/225/1 130/262/1
f 132/249/27 126/263/27 131/247/27
f 126/263/27 132/249/27 125/264/27
f 129/265/19 132/220/19 131/219/19
f 132/220/19 129/265/19 130/266/19
f 135/267/10 134/254/10 133/253/10
f 134/254/10 135/267/10 136/268/10
f 135/241/11 137/240/11 136/239/11
f 137/240/11 135/241/11 138/242/11
f 137/223/9 134/270/9 136/269/9
f 134/270/9 137/223/9 129/259/9
f 130/262/1 135/272/1 133/271/1
f 135/272/1 130/262/1 138/226/1
f 130/249/27 134/248/27 129/247/27
f 134/248/27 130/249/27 133/250/27
f 137/273/19 130/266/19 129/265/19
f 130/266/19 137/273/19 138/274/19
f 139/275/10 31/36/10 32/35/10
f 31/36/10 139/275/10 140/276/10
f 139/58/11 141/277/11 140/56/11
f 141/277/11 139/58/11 142/278/11
f 141/280/9 31/63/9 140/279/9
f 31/63/9 141/280/9 143/244/9
f 144/245/1 139/281/1 32/70/1
f 139/281/1 144/245/1 142/282/1
f 144/284/27 31/54/27 143/283/27
f 31/54/27 144/284/27 32/53/27
f 141/285/19 144/24/19 143/23/19
f 144/24/19 141/285/19 142/286/19
f 147/167/10 146/288/10 145/287/10
f 146/288/10 147/167/10 148/168/10
f 147/256/11 120/239/11 148/255/11
f 120/239/11 147/256/11 119/241/11
f 120/243/9 146/290/9 148/289/9
f 146/290/9 120/243/9 149/280/9
f 150/282/1 147/292/1 145/291/1
f 147/292/1 150/282/1 119/246/1
f 150/250/27 146/263/27 149/248/27
f 146/263/27 150/250/27 145/264/27
f 120/185/19 150/294/19 149/293/19
f 150/294/19 120/185/19 119/186/19
f 64/109/10 152/296/10 151/295/10
f 152/296/10 64/109/10 63/110/10
f 64/58/11 153/277/11 63/56/11
f 153/277/11 64/58/11 154/278/11
f 153/269/9 152/297/9 63/130/9
f 152/297/9 153/269/9 155/270/9
f 156/271/1 64/139/1 151/298/1
f 64/139/1 156/271/1 154/272/1
f 156/284/27 152/54/27 155/283/27
f 152/54/27 156/284/27 151/53/27
f 153/82/19 156/300/19 155/299/19
f 156/300/19 153/82/19 154/81/19
f 157/169/10 148/168/10 147/167/10
f 148/168/10 157/169/10 158/170/10
f 157/256/11 159/301/11 158/255/11
f 159/301/11 157/256/11 160/302/11
f 159/196/9 148/289/9 158/303/9
f 148/289/9 159/196/9 161/231/9
f 162/232/1 157/304/1 147/292/1
f 157/304/1 162/232/1 160/198/1
f 162/306/27 148/263/27 161/305/27
f 148/263/27 162/306/27 147/264/27
f 159/187/19 162/186/19 161/185/19
f 162/186/19 159/187/19 160/188/19
f 165/191/10 164/190/10 163/189/10
f 164/190/10 165/191/10 166/192/10
f 165/58/11 86/193/11 166/56/11
f 86/193/11 165/58/11 85/194/11
f 86/195/9 164/308/9 166/307/9
f 164/308/9 86/195/9 84/196/9
f 83/198/1 165/310/1 163/309/1
f 165/310/1 83/198/1 85/199/1
f 83/202/27 164/54/27 84/201/27
f 164/54/27 83/202/27 163/53/27
f 86/205/19 83/204/19 84/203/19
f 83/204/19 86/205/19 85/206/19
f 125/209/10 168/208/10 167/207/10
f 168/208/10 125/209/10 126/210/10
f 125/256/11 169/301/11 126/255/11
f 169/301/11 125/256/11 170/302/11
f 169/235/9 168/311/9 126/258/9
f 168/311/9 169/235/9 171/195/9
f 172/199/1 125/260/1 167/312/1
f 125/260/1 172/199/1 170/236/1
f 172/306/27 168/263/27 171/305/27
f 168/263/27 172/306/27 167/264/27
f 169/219/19 172/218/19 171/217/19
f 172/218/19 169/219/19 170/220/19
f 163/189/10 140/276/10 139/275/10
f 140/276/10 163/189/10 164/190/10
f 163/58/11 173/313/11 164/56/11
f 173/313/11 163/58/11 174/314/11
f 173/303/9 140/279/9 164/308/9
f 140/279/9 173/303/9 175/290/9
f 176/291/1 163/309/1 139/281/1
f 163/309/1 176/291/1 174/304/1
f 176/316/27 140/54/27 175/315/27
f 140/54/27 176/316/27 139/53/27
f 173/203/19 176/286/19 175/285/19
f 176/286/19 173/203/19 174/204/19
f 151/295/10 166/192/10 165/191/10
f 166/192/10 151/295/10 152/296/10
f 151/58/11 177/313/11 152/56/11
f 177/313/11 151/58/11 178/314/11
f 177/257/9 166/307/9 152/297/9
f 166/307/9 177/257/9 179/311/9
f 180/312/1 151/298/1 165/310/1
f 151/298/1 180/312/1 178/261/1
f 180/316/27 166/54/27 179/315/27
f 166/54/27 180/316/27 165/53/27
f 177/299/19 180/206/19 179/205/19
f 180/206/19 177/299/19 178/300/19
f 56/109/10 20/36/10 19/35/10
f 20/36/10 56/109/10 55/110/10
f 56/57/11 63/56/11 55/55/11
f 63/56/11 56/57/11 64/58/11
f 63/130/9 20/61/9 55/129/9
f 20/61/9 63/130/9 31/63/9
f 32/70/1 56/137/1 19/69/1
f 56/137/1 32/70/1 64/139/1
f 32/53/27 20/127/27 31/54/27
f 20/127/27 32/53/27 19/128/27
f 63/82/19 32/24/19 31/23/19
f 32/24/19 63/82/19 64/81/19
f 73/109/10 72/146/10 71/145/10
f 72/146/10 73/109/10 74/110/10
f 73/160/11 47/37/11 74/159/11
f 47/37/11 73/160/11 48/39/11
f 47/94/9 72/162/9 74/161/9
f 72/162/9 47/94/9 69/151/9
f 70/154/1 73/164/1 71/163/1
f 73/164/1 70/154/1 48/101/1
f 70/20/27 72/165/27 69/19/27
f 72/165/27 70/20/27 71/166/27
f 47/82/19 70/158/19 69/157/19
f 70/158/19 47/82/19 48/81/19
f 135/267/10 134/254/10 133/253/10
f 134/254/10 135/267/10 136/268/10
f 135/241/11 137/240/11 136/239/11
f 137/240/11 135/241/11 138/242/11
f 137/223/9 134/270/9 136/269/9
f 134/270/9 137/223/9 129/259/9
f 130/262/1 135/272/1 133/271/1
f 135/272/1 130/262/1 138/226/1
f 130/249/27 134/248/27 129/247/27
f 134/248/27 130/249/27 133/250/27
f 137/273/19 130/266/19 129/265/19
f 130/266/19 137/273/19 138/274/19

